<?xml version="1.0" standalone="no"?>
<!DOCTYPE svg PUBLIC "-//W3C//DTD SVG 20010904//EN"
 "http://www.w3.org/TR/2001/REC-SVG-20010904/DTD/svg10.dtd">
<svg version="1.0" xmlns="http://www.w3.org/2000/svg"
 width="1002.000000pt" height="1002.000000pt" viewBox="0 0 1002.000000 1002.000000"
 preserveAspectRatio="xMidYMid meet">
<metadata>
Created by potrace 1.11, written by Peter Selinger 2001-2013
</metadata>
<g transform="translate(0.000000,1002.000000) scale(0.100000,-0.100000)"
fill="#000000" stroke="none">
<path d="M4768 10015 c-1 -1 -52 -5 -113 -9 -60 -3 -121 -8 -135 -10 -14 -3
-52 -7 -85 -10 -33 -3 -71 -8 -84 -11 -12 -2 -44 -7 -69 -10 -61 -7 -201 -32
-287 -51 -38 -8 -81 -17 -95 -20 -170 -34 -620 -175 -747 -234 -24 -11 -45
-20 -49 -20 -13 0 -158 -67 -307 -141 -623 -311 -1147 -723 -1597 -1254 -23
-27 -52 -61 -63 -75 -66 -77 -223 -294 -302 -415 -321 -490 -540 -988 -675
-1535 -29 -114 -73 -328 -84 -405 -4 -23 -8 -52 -11 -65 -3 -14 -7 -47 -10
-75 -5 -45 -10 -82 -20 -155 -26 -178 -26 -764 -1 -1005 9 -77 17 -142 20
-165 3 -14 7 -46 10 -71 24 -185 83 -454 155 -701 121 -414 323 -865 550
-1228 220 -351 420 -600 726 -905 213 -213 426 -392 635 -535 36 -25 67 -47
70 -50 9 -10 193 -126 285 -180 458 -269 1048 -491 1550 -584 62 -12 141 -26
175 -31 19 -3 46 -8 60 -10 30 -6 109 -16 245 -30 245 -26 798 -27 1000 -1 17
3 57 7 90 10 33 4 85 11 115 16 30 5 75 12 100 14 35 4 284 53 360 71 469 109
984 321 1429 588 137 82 393 260 493 342 9 8 43 35 75 61 235 189 549 503 718
720 17 21 41 52 55 69 115 136 383 538 383 574 0 8 21 51 47 96 74 127 200
390 260 540 115 286 201 567 260 850 46 220 55 278 84 535 27 234 28 904 2
1070 -2 14 -8 52 -11 85 -4 33 -9 69 -11 80 -20 137 -28 185 -45 270 -32 160
-101 424 -144 550 -28 84 -96 269 -109 299 -8 17 -33 76 -57 131 -47 112 -189
392 -238 473 -18 28 -34 62 -35 75 -2 12 -33 71 -70 130 -496 790 -1185 1416
-2006 1822 -69 34 -141 69 -160 78 -19 8 -65 29 -102 46 -37 17 -73 31 -81 31
-7 0 -17 4 -23 9 -14 13 -273 104 -429 151 -214 64 -507 129 -695 154 -19 3
-66 10 -105 15 -38 6 -108 13 -155 17 -47 3 -96 8 -110 11 -30 4 -627 13 -632
8z m447 -3296 c33 -5 78 -11 100 -14 190 -26 455 -129 636 -247 199 -129 375
-305 504 -500 21 -32 38 -66 39 -75 1 -10 23 -60 50 -112 55 -108 118 -290
140 -406 9 -44 18 -93 22 -110 10 -54 13 -369 3 -445 -25 -203 -74 -370 -157
-540 -30 -63 -56 -123 -57 -132 -3 -20 -72 -123 -133 -198 -291 -353 -657
-561 -1122 -637 -59 -9 -370 -10 -440 0 -123 16 -250 47 -369 89 -90 32 -276
120 -302 144 -8 8 -19 14 -23 14 -24 0 -197 140 -297 239 -272 273 -415 550
-490 946 -15 78 -19 389 -6 499 12 111 63 308 108 416 233 569 752 974 1364
1064 103 15 341 18 430 5z"/>
</g>
</svg>
